<svg xmlns="http://www.w3.org/2000/svg" xmlns:xlink="http://www.w3.org/1999/xlink" width="500" zoomAndPan="magnify" viewBox="0 0 375 374.999991" height="500" preserveAspectRatio="xMidYMid meet" version="1.0"><defs><clipPath id="49db287a9b"><path d="M 167 131 L 215 131 L 215 239.671875 L 167 239.671875 Z M 167 131 " clip-rule="nonzero"/></clipPath></defs><path fill="#000000" d="M 152.242188 224.25 C 149.925781 224.25 148.378906 223.480469 146.832031 221.9375 L 115.925781 191.09375 C 112.835938 188.007812 112.835938 183.378906 115.925781 180.296875 L 146.832031 149.449219 C 149.925781 146.367188 154.558594 146.367188 157.652344 149.449219 C 160.742188 152.535156 160.742188 157.164062 157.652344 160.246094 L 132.152344 185.695312 L 157.652344 211.140625 C 160.742188 214.226562 160.742188 218.851562 157.652344 221.9375 C 156.105469 223.480469 154.558594 224.25 152.242188 224.25 Z M 152.242188 224.25 " fill-opacity="1" fill-rule="nonzero"/><path fill="#000000" d="M 229.507812 224.25 C 227.191406 224.25 225.644531 223.480469 224.097656 221.9375 C 221.007812 218.851562 221.007812 214.226562 224.097656 211.140625 L 249.597656 185.695312 L 224.097656 160.246094 C 221.007812 157.164062 221.007812 152.535156 224.097656 149.449219 C 227.191406 146.367188 231.824219 146.367188 234.917969 149.449219 L 265.824219 180.296875 C 268.914062 183.378906 268.914062 188.007812 265.824219 191.09375 L 234.917969 221.9375 C 233.371094 223.480469 231.824219 224.25 229.507812 224.25 Z M 229.507812 224.25 " fill-opacity="1" fill-rule="nonzero"/><g clip-path="url(#49db287a9b)"><path fill="#000000" d="M 175.421875 239.671875 C 174.648438 239.671875 173.875 239.671875 173.105469 238.902344 C 169.242188 237.359375 166.921875 233.503906 168.46875 228.878906 L 199.375 136.34375 C 200.917969 132.484375 204.78125 130.171875 209.417969 131.714844 C 213.28125 133.257812 215.601562 137.113281 214.054688 141.738281 L 183.148438 234.273438 C 181.601562 237.359375 178.511719 239.671875 175.421875 239.671875 Z M 175.421875 239.671875 " fill-opacity="1" fill-rule="nonzero"/></g></svg>