<svg xmlns="http://www.w3.org/2000/svg" xmlns:xlink="http://www.w3.org/1999/xlink" width="500" zoomAndPan="magnify" viewBox="0 0 375 374.999991" height="500" preserveAspectRatio="xMidYMid meet" version="1.0"><path fill="#2b7fff" d="M 150.527344 225.210938 C 148.308594 225.210938 146.832031 224.472656 145.351562 222.992188 L 115.773438 193.414062 C 112.816406 190.457031 112.816406 186.019531 115.773438 183.0625 L 145.351562 153.484375 C 148.308594 150.527344 152.746094 150.527344 155.703125 153.484375 C 158.660156 156.445312 158.660156 160.878906 155.703125 163.839844 L 131.304688 188.238281 L 155.703125 212.640625 C 158.660156 215.597656 158.660156 220.035156 155.703125 222.992188 C 154.226562 224.472656 152.746094 225.210938 150.527344 225.210938 Z M 150.527344 225.210938 " fill-opacity="1" fill-rule="nonzero"/><path fill="#2b7fff" d="M 224.472656 225.210938 C 222.253906 225.210938 220.773438 224.472656 219.296875 222.992188 C 216.339844 220.035156 216.339844 215.597656 219.296875 212.640625 L 243.695312 188.238281 L 219.296875 163.839844 C 216.339844 160.878906 216.339844 156.445312 219.296875 153.484375 C 222.253906 150.527344 226.691406 150.527344 229.648438 153.484375 L 259.226562 183.0625 C 262.183594 186.019531 262.183594 190.457031 259.226562 193.414062 L 229.648438 222.992188 C 228.167969 224.472656 226.691406 225.210938 224.472656 225.210938 Z M 224.472656 225.210938 " fill-opacity="1" fill-rule="nonzero"/><path fill="#2b7fff" d="M 172.710938 240 C 171.972656 240 171.230469 240 170.492188 239.261719 C 166.796875 237.78125 164.578125 234.085938 166.054688 229.648438 L 195.632812 140.914062 C 197.113281 137.21875 200.808594 135 205.246094 136.480469 C 208.945312 137.957031 211.160156 141.65625 209.683594 146.089844 L 180.105469 234.824219 C 178.625 237.78125 175.667969 240 172.710938 240 Z M 172.710938 240 " fill-opacity="1" fill-rule="nonzero"/></svg>